<?xml version="1.0" standalone="no"?>
<!DOCTYPE svg PUBLIC "-//W3C//DTD SVG 20010904//EN"
 "http://www.w3.org/TR/2001/REC-SVG-20010904/DTD/svg10.dtd">
<svg version="1.0" xmlns="http://www.w3.org/2000/svg"
 width="150.000000pt" height="150.000000pt" viewBox="0 0 150.000000 150.000000"
 preserveAspectRatio="xMidYMid meet">
<metadata>
Created by potrace 1.14, written by Peter Selinger 2001-2017
</metadata>
<g transform="translate(0.000000,150.000000) scale(0.100000,-0.100000)"
fill="#000000" stroke="none">
<path d="M515 1049 c-270 -34 -416 -133 -432 -293 -15 -140 67 -217 288 -271
107 -26 319 -46 319 -29 0 5 9 139 19 299 11 159 17 293 15 297 -6 10 -118 8
-209 -3z m143 -89 c4 -54 -26 -362 -39 -407 -6 -19 -18 -33 -33 -37 -43 -11
-246 31 -299 61 -28 17 -33 26 -39 74 -4 34 -12 58 -23 64 -46 27 -51 34 -35
45 8 5 27 10 42 10 51 0 46 65 -5 72 -32 5 -35 38 -3 38 43 0 72 17 94 54 12
20 34 41 49 47 39 15 145 27 223 25 l65 -1 3 -45z"/>
<path d="M405 876 c-44 -20 -92 -71 -98 -106 -16 -75 71 -170 155 -170 71 0
138 76 138 157 0 98 -102 160 -195 119z"/>
<path d="M783 1044 c-17 -46 31 -536 58 -587 10 -17 12 -18 26 -4 14 14 14 29
-6 154 -13 76 -25 201 -28 278 -3 77 -10 148 -15 158 -11 21 -27 22 -35 1z"/>
<path d="M1375 1028 c-24 -142 -31 -366 -14 -485 12 -88 30 -119 48 -84 9 15
9 38 0 88 -8 47 -10 120 -4 238 12 273 12 269 -7 273 -12 2 -18 -6 -23 -30z"/>
<path d="M913 974 c-3 -9 1 -66 10 -128 9 -61 21 -163 27 -226 6 -63 13 -130
16 -147 5 -37 29 -44 39 -13 9 30 -27 391 -51 503 -6 30 -31 36 -41 11z"/>
<path d="M1208 946 c-61 -16 -111 -55 -136 -107 -33 -67 -11 -85 66 -53 46 19
85 56 117 110 40 68 36 72 -47 50z m-33 -62 c-22 -19 -49 -40 -60 -46 -19 -11
-19 -10 -4 13 14 21 84 69 99 68 3 0 -13 -16 -35 -35z m0 -44 c-16 -16 -34
-30 -39 -30 -10 1 53 59 63 60 3 0 -8 -13 -24 -30z"/>
<path d="M1050 723 c0 -58 93 -167 173 -203 56 -25 66 -12 33 45 -38 64 -84
114 -135 147 -51 32 -71 35 -71 11z m105 -114 c31 -32 40 -45 23 -35 -23 15
-86 86 -76 86 2 0 26 -23 53 -51z"/>
</g>
</svg>
